<svg width="201" height="72" viewBox="0 0 201 72" fill="none" xmlns="http://www.w3.org/2000/svg">
<path d="M7.10442 37H0.896415L10.3556 9.59913H17.8213L27.2671 37H21.0591L14.1955 15.8607H13.9814L7.10442 37ZM6.71642 26.2296H21.3802V30.7519H6.71642V26.2296ZM30.5651 37V9.59913H41.3756C43.4538 9.59913 45.2244 9.99605 46.6872 10.7899C48.15 11.5748 49.2649 12.6675 50.032 14.0678C50.808 15.4593 51.196 17.0648 51.196 18.8844C51.196 20.704 50.8035 22.3095 50.0186 23.7009C49.2337 25.0924 48.0965 26.1761 46.6069 26.9521C45.1263 27.7281 43.3334 28.1161 41.2284 28.1161H34.3381V23.4735H40.2919C41.4068 23.4735 42.3255 23.2817 43.048 22.8982C43.7794 22.5057 44.3235 21.9661 44.6803 21.2793C45.046 20.5836 45.2288 19.7853 45.2288 18.8844C45.2288 17.9746 45.046 17.1808 44.6803 16.5029C44.3235 15.8161 43.7794 15.2853 43.048 14.9107C42.3166 14.5272 41.389 14.3354 40.2651 14.3354H36.3583V37H30.5651ZM54.9589 37V9.59913H65.7694C67.8477 9.59913 69.6182 9.99605 71.081 10.7899C72.5438 11.5748 73.6588 12.6675 74.4259 14.0678C75.2019 15.4593 75.5899 17.0648 75.5899 18.8844C75.5899 20.704 75.1974 22.3095 74.4125 23.7009C73.6276 25.0924 72.4903 26.1761 71.0008 26.9521C69.5201 27.7281 67.7273 28.1161 65.6223 28.1161H58.7319V23.4735H64.6857C65.8007 23.4735 66.7194 23.2817 67.4419 22.8982C68.1733 22.5057 68.7174 21.9661 69.0741 21.2793C69.4398 20.5836 69.6227 19.7853 69.6227 18.8844C69.6227 17.9746 69.4398 17.1808 69.0741 16.5029C68.7174 15.8161 68.1733 15.2853 67.4419 14.9107C66.7105 14.5272 65.7828 14.3354 64.659 14.3354H60.7522V37H54.9589ZM103.529 19.1921H97.6691C97.5621 18.4339 97.3435 17.7605 97.0135 17.1718C96.6835 16.5742 96.2598 16.0658 95.7425 15.6466C95.2251 15.2274 94.6275 14.9063 93.9497 14.6833C93.2807 14.4603 92.5537 14.3488 91.7688 14.3488C90.3506 14.3488 89.1153 14.7011 88.0627 15.4058C87.0102 16.1015 86.1941 17.1183 85.6143 18.4562C85.0346 19.7853 84.7447 21.3997 84.7447 23.2996C84.7447 25.2529 85.0346 26.8941 85.6143 28.2232C86.203 29.5522 87.0236 30.5556 88.0761 31.2335C89.1286 31.9114 90.3462 32.2503 91.7287 32.2503C92.5047 32.2503 93.2227 32.1478 93.8828 31.9426C94.5517 31.7375 95.1449 31.4387 95.6622 31.0462C96.1795 30.6448 96.6077 30.1587 96.9466 29.5879C97.2945 29.017 97.5353 28.3659 97.6691 27.6345L103.529 27.6612C103.378 28.9189 102.999 30.1319 102.392 31.3004C101.794 32.4599 100.987 33.4991 99.9704 34.4178C98.9624 35.3276 97.7583 36.0501 96.3579 36.5852C94.9665 37.1115 93.3922 37.3746 91.635 37.3746C89.1911 37.3746 87.0058 36.8216 85.0792 35.7156C83.1615 34.6096 81.6451 33.0085 80.5302 30.9124C79.4242 28.8163 78.8711 26.2787 78.8711 23.2996C78.8711 20.3115 79.4331 17.7694 80.5569 15.6733C81.6808 13.5773 83.2061 11.9807 85.1327 10.8835C87.0593 9.77752 89.2267 9.22451 91.635 9.22451C93.2227 9.22451 94.6944 9.4475 96.0502 9.89348C97.4149 10.3395 98.6235 10.9906 99.676 11.8469C100.729 12.6942 101.585 13.7333 102.245 14.9642C102.914 16.1951 103.342 17.6044 103.529 19.1921ZM107.684 37V9.59913H113.477V20.9047H125.237V9.59913H131.017V37H125.237V25.6811H113.477V37H107.684ZM140.516 37H134.308L143.768 9.59913H151.233L160.679 37H154.471L147.607 15.8607H147.393L140.516 37ZM140.128 26.2296H154.792V30.7519H140.128V26.2296ZM169.77 9.59913V37H163.977V9.59913H169.77ZM197.455 9.59913V37H192.452L180.531 19.754H180.33V37H174.537V9.59913H179.621L191.448 26.8317H191.689V9.59913H197.455Z" fill="white"/>
<path d="M143.207 53.3438C143.128 52.5994 142.793 52.0199 142.202 51.6051C141.616 51.1903 140.855 50.983 139.918 50.983C139.259 50.983 138.693 51.0824 138.222 51.2812C137.75 51.4801 137.389 51.75 137.139 52.0909C136.889 52.4318 136.761 52.821 136.756 53.2585C136.756 53.6222 136.838 53.9375 137.003 54.2045C137.173 54.4716 137.403 54.6989 137.693 54.8864C137.983 55.0682 138.304 55.2216 138.656 55.3466C139.009 55.4716 139.364 55.5767 139.722 55.6619L141.358 56.071C142.017 56.2244 142.651 56.4318 143.259 56.6932C143.872 56.9545 144.42 57.2841 144.903 57.6818C145.392 58.0795 145.778 58.5597 146.062 59.1222C146.347 59.6847 146.489 60.3437 146.489 61.0994C146.489 62.1222 146.227 63.0227 145.705 63.8011C145.182 64.5739 144.426 65.179 143.438 65.6165C142.455 66.0483 141.264 66.2642 139.866 66.2642C138.509 66.2642 137.33 66.054 136.33 65.6335C135.335 65.2131 134.557 64.5994 133.994 63.7926C133.438 62.9858 133.136 62.0028 133.091 60.8438H136.202C136.247 61.4517 136.435 61.9574 136.764 62.3608C137.094 62.7642 137.523 63.0653 138.051 63.2642C138.585 63.4631 139.182 63.5625 139.841 63.5625C140.528 63.5625 141.131 63.4602 141.648 63.2557C142.17 63.0455 142.58 62.7557 142.875 62.3864C143.17 62.0114 143.321 61.5739 143.327 61.0739C143.321 60.6193 143.188 60.2443 142.926 59.9489C142.665 59.6477 142.298 59.3977 141.827 59.1989C141.361 58.9943 140.815 58.8125 140.19 58.6534L138.205 58.142C136.767 57.7727 135.631 57.2131 134.795 56.4631C133.966 55.7074 133.551 54.7045 133.551 53.4545C133.551 52.4261 133.83 51.5256 134.386 50.7528C134.949 49.9801 135.713 49.3807 136.679 48.9545C137.645 48.5227 138.739 48.3068 139.96 48.3068C141.199 48.3068 142.284 48.5227 143.216 48.9545C144.153 49.3807 144.889 49.9744 145.423 50.7358C145.957 51.4915 146.233 52.3608 146.25 53.3438H143.207ZM164.248 54.4347H161.06C160.969 53.9119 160.802 53.4489 160.558 53.0455C160.313 52.6364 160.009 52.2898 159.646 52.0057C159.282 51.7216 158.867 51.5085 158.401 51.3665C157.941 51.2188 157.444 51.1449 156.91 51.1449C155.961 51.1449 155.12 51.3835 154.387 51.8608C153.654 52.3324 153.08 53.0256 152.665 53.9403C152.251 54.8494 152.043 55.9602 152.043 57.2727C152.043 58.608 152.251 59.733 152.665 60.6477C153.086 61.5568 153.66 62.2443 154.387 62.7102C155.12 63.1705 155.958 63.4006 156.901 63.4006C157.424 63.4006 157.913 63.3324 158.367 63.196C158.827 63.054 159.239 62.8466 159.603 62.5739C159.972 62.3011 160.282 61.9659 160.532 61.5682C160.788 61.1705 160.964 60.7159 161.06 60.2045L164.248 60.2216C164.129 61.0511 163.87 61.8295 163.472 62.5568C163.08 63.2841 162.566 63.9261 161.93 64.483C161.293 65.0341 160.549 65.4659 159.697 65.7784C158.844 66.0852 157.898 66.2386 156.859 66.2386C155.325 66.2386 153.955 65.8835 152.751 65.1733C151.546 64.4631 150.597 63.4375 149.904 62.0966C149.211 60.7557 148.864 59.1477 148.864 57.2727C148.864 55.392 149.214 53.7841 149.913 52.4489C150.612 51.108 151.563 50.0824 152.768 49.3722C153.972 48.6619 155.336 48.3068 156.859 48.3068C157.83 48.3068 158.734 48.4432 159.569 48.7159C160.404 48.9886 161.148 49.3892 161.802 49.9176C162.455 50.4403 162.992 51.0824 163.413 51.8438C163.839 52.5994 164.117 53.4631 164.248 54.4347ZM169.174 66H165.799L171.944 48.5455H175.847L182.001 66H178.626L173.964 52.125H173.827L169.174 66ZM169.285 59.1562H178.489V61.696H169.285V59.1562ZM198.643 48.5455V66H195.831L187.607 54.1108H187.462V66H184.3V48.5455H187.129L195.345 60.4432H195.499V48.5455H198.643Z" fill="white"/>
<path d="M125 56.7241L117 49V65L125 56.7241Z" fill="#009EDE"/>
</svg>
