<svg width="76" height="76" viewBox="0 0 76 76" fill="none" xmlns="http://www.w3.org/2000/svg">
<path fill-rule="evenodd" clip-rule="evenodd" d="M38 76C48.4933 76 57.9933 71.7467 64.87 64.87C71.7467 57.9933 76 48.4933 76 38C76 27.5067 71.7467 18.0067 64.87 11.1299C57.9933 4.2533 48.4933 0 38 0C27.5067 0 18.0067 4.2533 11.1299 11.1299C4.2533 18.0067 0 27.5067 0 38C0 48.4933 4.2533 57.9933 11.1299 64.87C18.0067 71.7467 27.5067 76 38 76Z" fill="#DC9C17"/>
<path d="M22.4287 38.263C22.4287 47.0075 29.5175 54.0964 38.262 54.0964C47.0066 54.0964 54.0954 47.0075 54.0954 38.263C54.0954 29.5185 47.0066 22.4297 38.262 22.4297" stroke="white" stroke-width="6" stroke-linecap="square" stroke-linejoin="round"/>
</svg>
