<?xml version="1.0" encoding="utf-8"?>
<svg version="1.1" xmlns:xlink="http://www.w3.org/1999/xlink" width="66px" height="66px" xmlns="http://www.w3.org/2000/svg">
  <g transform="matrix(1 0 0 1 -660 -253 )">
    <path d="M 54.3984375 27.97265625  C 54.9140625 27.45703125  55.171875 26.8125  55.171875 26.0390625  C 55.171875 25.236979166666664  54.9140625 24.578125000000004  54.3984375 24.062500000000004  L 50.48828125 20.195312500000004  C 49.94401041666668 19.65104166666666  49.29947916666668 19.378906249999996  48.5546875 19.378906249999996  C 47.809895833333336 19.378906249999996  47.165364583333336 19.65104166666666  46.62109375 20.195312500000004  L 29.08984375 37.68359375000001  L 19.37890625 27.97265625  C 18.834635416666668 27.428385416666664  18.190104166666668 27.156250000000004  17.4453125 27.156250000000004  C 16.700520833333336 27.156250000000004  16.055989583333332 27.428385416666664  15.51171875 27.97265625  L 11.6015625 31.83984375  C 11.0859375 32.35546875  10.828125000000002 33.014322916666664  10.828125 33.81640625000001  C 10.828125000000002 34.58984375000001  11.0859375 35.23437500000001  11.6015625 35.75000000000001  L 27.15625 51.3046875  C 27.700520833333336 51.84895833333333  28.345052083333336 52.12109375  29.08984375 52.12109375  C 29.86328125 52.12109375  30.522135416666668 51.84895833333333  31.06640625 51.3046875  L 54.3984375 27.97265625  Z M 61.57421875 16.435546875  C 64.52473958333333 21.49153645833333  66 27.013020833333325  66 33  C 66 38.98697916666667  64.52473958333333 44.50846354166666  61.57421875 49.564453125  C 58.62369791666667 54.620442708333336  54.620442708333336 58.623697916666664  49.564453125 61.57421875  C 44.50846354166667 64.52473958333334  38.98697916666667 66  33 66  C 27.013020833333336 66  21.491536458333336 64.52473958333334  16.435546875 61.57421875  C 11.379557291666668 58.623697916666664  7.376302083333334 54.620442708333336  4.42578125 49.564453125  C 1.4752604166666665 44.50846354166666  0 38.98697916666667  0 33  C 0 27.013020833333325  1.4752604166666665 21.49153645833333  4.42578125 16.435546875  C 7.376302083333334 11.379557291666666  11.379557291666668 7.376302083333327  16.435546875 4.425781249999997  C 21.491536458333336 1.475260416666661  27.013020833333336 0  33 0  C 38.98697916666667 0  44.50846354166667 1.475260416666661  49.564453125 4.425781249999997  C 54.620442708333336 7.376302083333327  58.62369791666667 11.379557291666666  61.57421875 16.435546875  Z " fill-rule="nonzero" fill="#70b603" stroke="none" transform="matrix(1 0 0 1 660 253 )" />
  </g>
</svg>